<svg xmlns="http://www.w3.org/2000/svg" viewBox="0 0 128 128" width="128" height="128">
  <defs>
    <linearGradient id="bg" x1="0" y1="0" x2="1" y2="1">
      <stop offset="0" stop-color="#1e293b"/>
      <stop offset="1" stop-color="#0b1220"/>
    </linearGradient>
    <linearGradient id="node" x1="0" y1="0" x2="0" y2="1">
      <stop offset="0" stop-color="#fde047"/>
      <stop offset="1" stop-color="#f97316"/>
    </linearGradient>
    <radialGradient id="glow" cx="0.5" cy="0.5" r="0.5">
      <stop offset="0" stop-color="#f59e0b" stop-opacity="0.35"/>
      <stop offset="1" stop-color="#f59e0b" stop-opacity="0"/>
    </radialGradient>
  </defs>

  <rect width="128" height="128" rx="24" fill="url(#bg)"/>
  <circle cx="64" cy="34" r="36" fill="url(#glow)"/>

  <g stroke="#475569" stroke-width="2.5" stroke-linecap="round" fill="none" opacity="0.85">
    <path d="M 64 34 C 64 48, 30 54, 30 68"/>
    <path d="M 64 34 L 64 68"/>
    <path d="M 64 34 C 64 48, 98 54, 98 68"/>
    <path d="M 30 68 C 30 82, 22 88, 22 100"/>
    <path d="M 30 68 C 30 82, 42 88, 42 100"/>
    <path d="M 64 68 L 64 100"/>
    <path d="M 98 68 C 98 82, 90 88, 90 100"/>
    <path d="M 98 68 C 98 82, 106 88, 106 100"/>
  </g>

  <circle cx="22" cy="100" r="6.5" fill="url(#node)" stroke="#0f172a" stroke-width="1.5"/>
  <circle cx="42" cy="100" r="6.5" fill="url(#node)" stroke="#0f172a" stroke-width="1.5"/>
  <circle cx="64" cy="100" r="6.5" fill="url(#node)" stroke="#0f172a" stroke-width="1.5"/>
  <circle cx="90" cy="100" r="6.5" fill="url(#node)" stroke="#0f172a" stroke-width="1.5"/>
  <circle cx="106" cy="100" r="6.5" fill="url(#node)" stroke="#0f172a" stroke-width="1.5"/>

  <circle cx="30" cy="68" r="9" fill="url(#node)" stroke="#0f172a" stroke-width="1.5"/>
  <circle cx="64" cy="68" r="9" fill="url(#node)" stroke="#0f172a" stroke-width="1.5"/>
  <circle cx="98" cy="68" r="9" fill="url(#node)" stroke="#0f172a" stroke-width="1.5"/>

  <circle cx="64" cy="34" r="13" fill="url(#node)" stroke="#0f172a" stroke-width="2"/>
  <circle cx="64" cy="34" r="13" fill="none" stroke="#fef3c7" stroke-width="0.8" opacity="0.6"/>
</svg>
